<svg width="152" height="24" viewBox="0 0 152 24" fill="none" xmlns="http://www.w3.org/2000/svg">
<path d="M16.8182 7.59091C16.5682 6.82576 16.2386 6.14015 15.8295 5.53409C15.428 4.92045 14.947 4.39773 14.3864 3.96591C13.8333 3.53409 13.2045 3.20455 12.5 2.97727C11.7955 2.75 11.0227 2.63636 10.1818 2.63636C8.80303 2.63636 7.54924 2.99242 6.42045 3.70455C5.29167 4.41667 4.39394 5.46591 3.72727 6.85227C3.06061 8.23864 2.72727 9.93939 2.72727 11.9545C2.72727 13.9697 3.06439 15.6705 3.73864 17.0568C4.41288 18.4432 5.32576 19.4924 6.47727 20.2045C7.62879 20.9167 8.92424 21.2727 10.3636 21.2727C11.697 21.2727 12.8712 20.9886 13.8864 20.4205C14.9091 19.8447 15.7045 19.0341 16.2727 17.9886C16.8485 16.9356 17.1364 15.697 17.1364 14.2727L18 14.4545H11V11.9545H19.8636V14.4545C19.8636 16.3712 19.4545 18.0379 18.6364 19.4545C17.8258 20.8712 16.7045 21.9697 15.2727 22.75C13.8485 23.5227 12.2121 23.9091 10.3636 23.9091C8.30303 23.9091 6.49242 23.4242 4.93182 22.4545C3.37879 21.4848 2.16667 20.1061 1.29545 18.3182C0.431818 16.5303 0 14.4091 0 11.9545C0 10.1136 0.246212 8.45833 0.738636 6.98864C1.23864 5.51136 1.94318 4.25379 2.85227 3.21591C3.76136 2.17803 4.83712 1.38258 6.07955 0.829546C7.32197 0.276515 8.68939 0 10.1818 0C11.4091 0 12.553 0.185606 13.6136 0.556818C14.6818 0.920454 15.6326 1.43939 16.4659 2.11364C17.3068 2.7803 18.0076 3.57955 18.5682 4.51136C19.1288 5.43561 19.5152 6.46212 19.7273 7.59091H16.8182Z" fill="black"/>
<path d="M33.6903 23.5909V0.318182H47.6449V2.81818H36.5085V10.6818H46.5994V13.1818H36.5085V23.5909H33.6903Z" fill="black"/>
<path d="M52.4716 23.5909V0.318182H55.2898V21.0909H66.108V23.5909H52.4716Z" fill="black"/>
<path d="M70.4716 23.5909V0.318182H84.517V2.81818H73.2898V10.6818H83.7898V13.1818H73.2898V21.0909H84.6989V23.5909H70.4716Z" fill="black"/>
<path d="M102.324 6.13636C102.188 4.98485 101.634 4.09091 100.665 3.45455C99.6951 2.81818 98.5057 2.5 97.0966 2.5C96.0663 2.5 95.1648 2.66667 94.392 3C93.6269 3.33333 93.0284 3.79167 92.5966 4.375C92.1723 4.95833 91.9602 5.62121 91.9602 6.36364C91.9602 6.98485 92.108 7.51894 92.4034 7.96591C92.7064 8.4053 93.0928 8.77273 93.5625 9.06818C94.0322 9.35606 94.5246 9.5947 95.0398 9.78409C95.5549 9.96591 96.0284 10.1136 96.4602 10.2273L98.8239 10.8636C99.4299 11.0227 100.104 11.2424 100.847 11.5227C101.597 11.803 102.312 12.1856 102.994 12.6705C103.684 13.1477 104.252 13.7614 104.699 14.5114C105.146 15.2614 105.369 16.1818 105.369 17.2727C105.369 18.5303 105.04 19.6667 104.381 20.6818C103.729 21.697 102.775 22.5038 101.517 23.1023C100.267 23.7008 98.7481 24 96.9602 24C95.2936 24 93.8504 23.7311 92.6307 23.1932C91.4186 22.6553 90.464 21.9053 89.767 20.9432C89.0777 19.9811 88.6875 18.8636 88.5966 17.5909H91.5057C91.5814 18.4697 91.8769 19.197 92.392 19.7727C92.9148 20.3409 93.5739 20.7652 94.3693 21.0455C95.1723 21.3182 96.036 21.4545 96.9602 21.4545C98.036 21.4545 99.0019 21.2803 99.858 20.9318C100.714 20.5758 101.392 20.0833 101.892 19.4545C102.392 18.8182 102.642 18.0758 102.642 17.2273C102.642 16.4545 102.426 15.8258 101.994 15.3409C101.562 14.8561 100.994 14.4621 100.29 14.1591C99.5852 13.8561 98.8239 13.5909 98.0057 13.3636L95.142 12.5455C93.3239 12.0227 91.8845 11.2765 90.8239 10.3068C89.7633 9.33712 89.233 8.06818 89.233 6.5C89.233 5.19697 89.5852 4.06061 90.2898 3.09091C91.0019 2.11364 91.9564 1.35606 93.1534 0.818182C94.358 0.272727 95.7027 0 97.1875 0C98.6875 0 100.021 0.268939 101.188 0.806818C102.354 1.33712 103.278 2.06439 103.96 2.98864C104.65 3.91288 105.013 4.96212 105.051 6.13636H102.324Z" fill="black"/>
<path d="M128.73 7.59091H125.912C125.745 6.7803 125.454 6.06818 125.037 5.45455C124.628 4.84091 124.128 4.32576 123.537 3.90909C122.954 3.48485 122.306 3.16667 121.594 2.95455C120.882 2.74242 120.139 2.63636 119.366 2.63636C117.957 2.63636 116.681 2.99242 115.537 3.70455C114.401 4.41667 113.495 5.46591 112.821 6.85227C112.154 8.23864 111.821 9.93939 111.821 11.9545C111.821 13.9697 112.154 15.6705 112.821 17.0568C113.495 18.4432 114.401 19.4924 115.537 20.2045C116.681 20.9167 117.957 21.2727 119.366 21.2727C120.139 21.2727 120.882 21.1667 121.594 20.9545C122.306 20.7424 122.954 20.428 123.537 20.0114C124.128 19.5871 124.628 19.0682 125.037 18.4545C125.454 17.8333 125.745 17.1212 125.912 16.3182H128.73C128.518 17.5076 128.132 18.572 127.571 19.5114C127.01 20.4508 126.313 21.25 125.48 21.9091C124.647 22.5606 123.711 23.0568 122.673 23.3977C121.643 23.7386 120.541 23.9091 119.366 23.9091C117.382 23.9091 115.616 23.4242 114.071 22.4545C112.526 21.4848 111.31 20.1061 110.423 18.3182C109.537 16.5303 109.094 14.4091 109.094 11.9545C109.094 9.5 109.537 7.37879 110.423 5.59091C111.31 3.80303 112.526 2.42424 114.071 1.45455C115.616 0.484849 117.382 0 119.366 0C120.541 0 121.643 0.170455 122.673 0.511364C123.711 0.852273 124.647 1.35227 125.48 2.01136C126.313 2.66288 127.01 3.45833 127.571 4.39773C128.132 5.32955 128.518 6.39394 128.73 7.59091Z" fill="black"/>
<path d="M133.284 23.5909V0.318182H136.102V10.6818H148.511V0.318182H151.33V23.5909H148.511V13.1818H136.102V23.5909H133.284Z" fill="black"/>
</svg>
